<mxfile host="app.diagrams.net" modified="2023-10-25T09:23:31.848Z" agent="Mozilla/5.0 (Windows NT 10.0; Win64; x64) AppleWebKit/537.36 (KHTML, like Gecko) Chrome/118.0.0.0 Safari/537.36" version="22.0.8" etag="ecGSr-37aUj335qopWHn" type="github">
  <diagram name="Страница — 1" id="LH4zO_9lm2AMkplqOqiT">
    <mxGraphModel>
      <root>
        <mxCell id="0" />
        <mxCell id="1" parent="0" />
      </root>
    </mxGraphModel>
  </diagram>
</mxfile>
